# xmcd
#
# Track frame offsets: 
#        150
#        33420
#        50680
#        69627
#        94832
#        121505
#        135680
#        149172
#        175785
#        199570
#
# Disc length: 2884 seconds
#
# Revision: 6
# Processed by: cddbd v1.5.2PL0 Copyright (c) Steve Scherf et al.
# Submitted via: ExactAudioCopy v1.0b3
#
DISCID=900b420a
DTITLE=Various Artist - Blues After Midnight [CD1]
DYEAR=1991
DGENRE=Blues
TTITLE0=Gary Moore - Parisienne Walkways
TTITLE1=Peter Green - In The Skies
TTITLE2=Eric Burdon - Going Back To Memphis
TTITLE3=Peter Green - Baby When The Sun Goes Down
TTITLE4=John Mayall - Tears Came Rolling Down
TTITLE5=Alexis Korner - Corina Corina
TTITLE6=John Lee Hooker - The Syndicator
TTITLE7=Alexis Korner and Zoot Money - Stormy Monday Blues
TTITLE8=John Mayall - Gimme On More Day
TTITLE9=Peter Green - Same Old Blues
EXTD=YEAR: 1991
EXTT0=
EXTT1=
EXTT2=
EXTT3=
EXTT4=
EXTT5=
EXTT6=
EXTT7=
EXTT8=
EXTT9=
PLAYORDER=
